<?xml version="1.0" standalone="no"?>
<!DOCTYPE svg PUBLIC "-//W3C//DTD SVG 20010904//EN"
 "http://www.w3.org/TR/2001/REC-SVG-20010904/DTD/svg10.dtd">
<svg version="1.0" xmlns="http://www.w3.org/2000/svg"
 width="96.000000pt" height="96.000000pt" viewBox="0 0 96.000000 96.000000"
 preserveAspectRatio="xMidYMid meet">
<metadata>
Created by potrace 1.14, written by Peter Selinger 2001-2017
</metadata>
<g transform="translate(0.000000,96.000000) scale(0.100000,-0.100000)"
fill="#000000" stroke="none">
<path d="M268 843 c-48 -30 -60 -84 -31 -133 24 -41 53 -50 158 -50 52 0 95
-3 95 -7 0 -4 -9 -26 -21 -50 -21 -43 -51 -61 -92 -54 -16 2 -16 0 -5 -18 7
-12 18 -21 25 -21 22 0 15 -24 -32 -116 -50 -99 -54 -125 -25 -169 27 -40 26
-81 -1 -88 -33 -9 -17 -32 22 -32 32 0 34 2 37 38 2 28 8 37 22 37 14 0 20 -9
22 -38 3 -35 5 -37 37 -37 39 0 55 23 22 32 -16 4 -21 13 -21 39 0 19 4 34 9
34 5 0 30 43 55 95 26 52 48 95 50 95 6 0 -1 -165 -8 -182 -4 -9 -5 -22 -1
-28 9 -15 45 7 45 28 1 14 2 14 12 -3 25 -44 55 -34 37 12 -13 34 -12 35 11
23 16 -9 22 -8 27 6 8 21 -21 44 -54 44 -26 0 -25 -2 -25 113 0 74 2 82 61
202 34 68 61 134 61 145 0 31 -29 76 -57 89 -15 7 -99 11 -216 11 -161 0 -196
-3 -219 -17z"/>
</g>
</svg>
